<?xml version="1.0" encoding="utf-8"?>
<!-- Svg Vector Icons : http://www.onlinewebfonts.com/icon -->
<!DOCTYPE svg PUBLIC "-//W3C//DTD SVG 1.1//EN" "http://www.w3.org/Graphics/SVG/1.1/DTD/svg11.dtd">
<svg version="1.1" xmlns="http://www.w3.org/2000/svg" xmlns:xlink="http://www.w3.org/1999/xlink" x="0px" y="0px" viewBox="0 0 256 256" enable-background="new 0 0 256 256" xml:space="preserve">
<metadata> Svg Vector Icons : http://www.onlinewebfonts.com/icon </metadata>
<g><g><path fill="#000000" d="M214.7,226.8c-3.9-5.9-9-7.7-9-7.7l-42.4-13.8l-13.6-7.2v-16.3c0,0,10.3-6.9,11.6-17.1c0.5,0,1.1-0.1,1.7-0.2c7.4-1,12.8-20.2,12.8-20.2s0.4-9-4.1-9c-0.5,0-5.5,0.1-5.9,0.2l1.2-15.9l0.1-12.2c0,0,0.1-33.1-38.3-33.5c-39.8,0.4-32.3,18.2-32.3,18.2c0,0,0,0.1,0,0.1c-5,3-7.5,7.6-7.5,17.1c0,20.5,2.4,27.9,2.4,27.9l-5.6-1.9c0,0-6.4,0.7-5.9,8.6s6.9,19.6,14.3,20.5c0.6,0.1,1,0.1,1.5,0.1c0,12.5,10.4,17.5,10.4,17.5l0.1,15.6l-13.8,7.6l-41,13.7c0,0-5.7,1.8-9.9,7.9c-19.5-21-31.4-49.1-31.4-79.9c0-65,52.8-117.8,118-117.8c65.2,0,118,52.7,118,117.8C246,178.8,235.3,205.6,214.7,226.8"/></g></g>
</svg>